<?xml version="1.0" standalone="no"?>
<!DOCTYPE svg PUBLIC "-//W3C//DTD SVG 20010904//EN"
 "http://www.w3.org/TR/2001/REC-SVG-20010904/DTD/svg10.dtd">
<svg version="1.0" xmlns="http://www.w3.org/2000/svg"
 width="512.000000pt" height="512.000000pt" viewBox="0 0 512.000000 512.000000"
 preserveAspectRatio="xMidYMid meet">
<metadata>
Created by potrace 1.11, written by Peter Selinger 2001-2013
</metadata>
<g transform="translate(0.000000,512.000000) scale(0.100000,-0.100000)"
fill="#000000" stroke="none">
<path d="M2474 5104 c-34 -7 -70 -17 -80 -23 -11 -5 -75 -43 -144 -82 -69 -39
-141 -81 -160 -92 -34 -19 -239 -137 -490 -282 -306 -177 -604 -349 -845 -488
-336 -193 -360 -212 -412 -312 -54 -104 -53 -71 -50 -1295 l2 -1135 37 -75
c37 -77 80 -130 133 -166 17 -12 206 -122 420 -246 431 -249 518 -299 745
-431 85 -49 180 -104 210 -121 46 -26 240 -137 298 -171 286 -166 311 -177
422 -177 101 0 144 17 340 130 91 52 255 147 365 210 110 64 283 164 385 222
102 59 255 147 340 197 85 49 271 156 414 239 268 154 323 196 370 281 58 102
55 50 56 1268 0 1202 1 1165 -51 1270 -44 87 -107 138 -329 263 -19 10 -134
77 -255 147 -492 285 -612 354 -650 375 -22 12 -96 55 -165 95 -259 151 -626
361 -650 372 -79 37 -166 46 -256 27z"/>
</g>
</svg>
